P3
38 36
255
255 255 255 	
252 252 252 	251 251 251 	255 255 255 	255 255 255 	255 255 255 	249 249 249 	249 249 249 	255 255 255 	249 249 249 	255 255 255 	
250 250 250 	255 255 255 	250 250 250 	250 250 250 	254 254 254 	253 254 254 	251 252 252 	252 252 253 	252 251 252 	248 245 249 	
250 249 251 	251 249 251 	248 245 245 	249 247 245 	249 247 244 	249 247 244 	249 248 246 	250 250 248 	252 253 252 	254 254 254 	
254 253 254 	248 245 244 	248 246 244 	247 245 244 	253 253 253 	254 254 254 	253 254 254 	242 242 242 	255 255 255 	241 241 241 	
255 255 255 	255 255 255 	250 250 250 	255 255 255 	255 255 255 	255 255 255 	255 255 255 	255 255 255 	248 248 248 	233 233 233 	
255 255 255 	250 250 250 	239 239 239 	253 254 254 	253 254 254 	254 254 254 	253 252 253 	249 247 250 	251 250 252 	253 252 253 	
252 251 251 	251 250 248 	250 248 246 	249 248 246 	250 249 247 	251 252 251 	253 254 254 	254 254 254 	254 254 254 	250 249 248 	
250 249 247 	251 250 249 	255 255 255 	254 254 254 	254 254 254 	255 255 255 	237 237 237 	4 4 4 	0 0 0 	0 0 0 	
0 0 0 	12 12 12 	0 0 0 	0 0 0 	0 0 0 	0 0 0 	4 4 4 	20 20 20 	236 236 236 	252 252 252 	
254 254 253 	251 252 251 	250 251 250 	254 254 254 	254 254 254 	253 254 254 	253 254 254 	253 254 254 	253 254 254 	250 251 250 	
248 250 248 	248 250 248 	249 250 249 	251 252 251 	252 253 253 	252 252 253 	252 253 253 	251 253 253 	251 253 253 	254 254 254 	
253 253 253 	254 254 254 	254 254 254 	255 255 255 	255 255 255 	0 0 0 	5 5 5 	10 10 10 	3 3 3 	7 7 7 	
0 0 0 	0 0 0 	0 0 0 	0 0 0 	0 0 0 	0 0 0 	255 255 255 	255 255 255 	253 253 252 	250 249 247 	
250 249 247 	250 250 249 	248 251 250 	247 252 251 	244 251 250 	245 251 250 	243 251 249 	246 252 251 	246 252 251 	245 251 250 	
246 252 251 	250 253 252 	251 253 253 	250 253 252 	247 252 251 	242 250 249 	241 250 248 	252 254 253 	248 248 249 	251 250 251 	
251 250 250 	253 253 253 	255 255 255 	8 8 8 	0 0 0 	0 0 0 	0 0 0 	0 0 0 	17 17 17 	5 5 5 	
0 0 0 	15 15 15 	4 4 4 	2 2 2 	255 255 255 	255 255 255 	242 241 240 	247 246 244 	249 248 246 	253 254 254 	
248 252 251 	237 249 247 	233 247 245 	235 248 246 	236 248 246 	236 248 246 	235 248 246 	234 248 245 	236 248 246 	242 250 249 	
243 251 249 	240 250 248 	236 248 246 	233 247 245 	235 248 246 	249 253 252 	253 253 253 	253 253 253 	248 246 246 	255 255 255 	
255 255 255 	2 2 2 	0 0 0 	12 12 12 	15 15 15 	0 0 0 	0 0 0 	4 4 4 	0 0 0 	0 0 0 	
0 0 0 	0 0 0 	248 248 248 	255 255 255 	253 253 252 	252 251 249 	253 252 251 	254 254 254 	239 247 247 	154 177 175 	
131 161 158 	133 163 163 	141 171 172 	140 170 172 	140 170 172 	138 170 170 	138 168 169 	141 165 168 	142 165 168 	139 166 168 	
136 166 165 	132 163 161 	142 166 164 	232 241 242 	243 243 246 	252 251 252 	249 247 247 	254 254 254 	255 255 255 	4 4 4 	
0 0 0 	0 0 0 	0 0 0 	0 0 0 	3 3 3 	0 0 0 	3 3 3 	0 0 0 	6 6 6 	9 9 9 	
252 252 252 	254 254 254 	251 250 250 	247 245 245 	253 252 253 	253 253 253 	242 250 249 	136 166 165 	132 171 170 	138 178 179 	
146 187 189 	145 186 189 	144 187 189 	142 187 188 	142 185 186 	145 181 185 	145 180 184 	141 182 183 	138 180 179 	135 175 172 	
148 178 176 	245 251 250 	252 251 252 	251 250 251 	246 243 243 	253 253 253 	255 255 255 	0 0 0 	0 0 0 	12 12 12 	
0 0 0 	11 11 11 	0 0 0 	0 0 0 	8 8 8 	0 0 0 	3 3 3 	1 1 1 	255 255 255 	255 255 255 	
254 253 253 	253 252 253 	253 252 253 	250 250 251 	243 251 249 	137 171 170 	147 191 190 	146 191 193 	142 188 191 	144 191 195 	
144 192 195 	145 194 196 	144 192 194 	143 185 189 	143 184 188 	140 186 187 	138 184 182 	128 171 168 	139 171 169 	244 251 250 	
252 251 252 	251 250 251 	242 237 237 	255 255 255 	255 255 255 	0 0 0 	4 4 4 	2 2 2 	0 0 0 	0 0 0 	
0 0 0 	0 0 0 	2 2 2 	0 0 0 	9 9 9 	0 0 0 	255 255 255 	255 255 255 	253 252 252 	253 252 253 	
253 252 253 	250 250 251 	243 251 249 	137 171 170 	147 191 190 	146 191 193 	142 188 191 	144 191 195 	144 192 195 	145 194 196 	
144 192 194 	143 185 189 	143 184 188 	140 186 187 	138 184 182 	128 171 168 	139 171 169 	244 251 250 	252 251 252 	251 250 251 	
242 237 237 	253 253 253 	255 255 255 	0 0 0 	4 4 4 	0 0 0 	0 0 0 	7 7 7 	7 7 7 	4 4 4 	
0 0 0 	8 8 8 	6 6 6 	9 9 9 	244 244 244 	255 255 255 	254 254 254 	247 245 245 	253 252 253 	253 253 253 	
242 250 249 	136 166 165 	132 171 170 	138 178 179 	146 187 189 	145 186 189 	144 187 189 	142 187 188 	142 185 186 	145 181 185 	
145 180 184 	141 182 183 	138 180 179 	135 175 172 	148 178 176 	245 251 250 	252 251 252 	251 250 251 	246 243 243 	251 251 251 	
255 255 255 	0 0 0 	0 0 0 	0 0 0 	0 0 0 	0 0 0 	0 0 0 	0 0 0 	0 0 0 	2 2 2 	
0 0 0 	1 1 1 	250 250 250 	255 255 255 	253 253 252 	252 251 249 	253 252 251 	254 254 254 	239 247 247 	154 177 175 	
131 161 158 	133 163 163 	141 171 172 	140 170 172 	140 170 172 	138 170 170 	138 168 169 	141 165 168 	142 165 168 	139 166 168 	
136 166 165 	132 163 161 	142 166 164 	232 241 242 	243 243 246 	252 251 252 	249 247 247 	255 255 255 	255 255 255 	0 0 0 	
5 5 5 	5 5 5 	9 9 9 	1 1 1 	0 0 0 	2 2 2 	10 10 10 	0 0 0 	0 0 0 	0 0 0 	
255 255 255 	252 252 252 	242 241 240 	247 246 244 	249 248 246 	253 254 254 	248 252 251 	237 249 247 	233 247 245 	235 248 246 	
236 248 246 	236 248 246 	235 248 246 	234 248 245 	236 248 246 	242 250 249 	243 251 249 	240 250 248 	236 248 246 	233 247 245 	
235 248 246 	249 253 252 	253 253 253 	253 253 253 	248 246 246 	250 250 250 	236 236 236 	11 11 11 	0 0 0 	0 0 0 	
0 0 0 	2 2 2 	14 14 14 	0 0 0 	0 0 0 	0 0 0 	0 0 0 	15 15 15 	240 240 240 	255 255 255 	
253 253 252 	250 249 247 	250 249 247 	250 250 249 	248 251 250 	247 252 251 	244 251 250 	245 251 250 	243 251 249 	246 252 251 	
246 252 251 	245 251 250 	246 252 251 	250 253 252 	251 253 253 	250 253 252 	247 252 251 	242 250 249 	241 250 248 	252 254 253 	
248 248 249 	251 250 251 	251 250 250 	249 249 249 	255 255 255 	229 229 229 	255 255 255 	255 255 255 	255 255 255 	246 246 246 	
246 246 246 	255 255 255 	245 245 245 	255 255 255 	255 255 255 	247 247 247 	255 255 255 	246 246 246 	234 234 233 	251 252 251 	
250 251 250 	254 254 254 	254 254 254 	253 254 254 	253 254 254 	253 254 254 	253 254 254 	250 251 250 	248 250 248 	248 250 248 	
249 250 249 	251 252 251 	252 253 253 	252 252 253 	252 253 253 	251 253 253 	251 253 253 	254 254 254 	253 253 253 	254 254 254 	
254 254 254 	247 247 247 	255 255 255 	253 253 253 	255 255 255 	251 251 251 	251 251 251 	251 251 251 	255 255 255 	255 255 255 	
246 246 246 	255 255 255 	246 246 246 	255 255 255 	234 234 234 	255 255 255 	254 254 254 	253 254 254 	253 254 254 	254 254 254 	
253 252 253 	249 247 250 	251 250 252 	253 252 253 	252 251 251 	251 250 248 	250 248 246 	249 248 246 	250 249 247 	251 252 251 	
253 254 254 	254 254 254 	254 254 254 	250 249 248 	250 249 247 	251 250 249 	255 255 255 	254 254 254 	254 254 254 	254 254 254 	
243 243 243 	253 253 252 	251 250 249 	254 254 254 	255 255 255 	252 252 251 	252 252 251 	251 252 252 	254 254 254 	252 252 253 	
255 255 255 	254 254 253 	250 250 249 	254 254 254 	236 237 237 	254 254 254 	252 252 253 	252 251 252 	252 251 252 	247 245 248 	
251 250 252 	251 250 251 	249 247 247 	251 250 248 	250 248 246 	250 249 247 	249 249 247 	251 252 251 	252 253 252 	254 254 254 	
254 254 254 	250 248 248 	251 249 248 	247 246 245 	253 253 253 	254 254 254 	254 254 254 	250 252 252 	254 254 254 	248 246 244 	
250 248 246 	254 253 254 	250 250 251 	248 248 246 	247 248 246 	250 253 252 	251 253 253 	254 254 254 	254 254 254 	252 251 250 	
252 252 251 	252 254 253 	253 254 254 	253 252 253 	250 248 251 	252 251 252 	249 247 250 	245 241 244 	252 251 252 	253 252 253 	
253 253 253 	252 252 251 	250 251 250 	249 251 250 	249 251 250 	251 253 252 	253 254 254 	254 254 254 	254 254 254 	254 254 254 	
244 245 246 	254 254 254 	245 245 246 	254 254 254 	251 251 252 	252 254 253 	254 254 254 	248 246 243 	248 246 243 	253 252 253 	
251 251 252 	248 248 246 	247 249 247 	246 250 250 	249 251 251 	252 252 253 	252 251 252 	249 247 246 	251 250 248 	252 254 253 	
252 254 253 	254 253 254 	245 243 245 	252 251 252 	252 251 252 	253 252 253 	253 252 253 	245 244 244 	249 249 249 	252 254 253 	
251 253 253 	250 253 252 	251 253 253 	252 254 253 	254 254 254 	254 254 254 	254 254 254 	252 253 253 	249 252 252 	253 254 254 	
253 253 253 	254 254 254 	254 254 254 	247 249 250 	253 253 252 	239 234 229 	242 237 233 	251 250 250 	251 250 251 	252 251 250 	
254 254 254 	253 253 253 	253 252 253 	252 251 252 	252 251 252 	249 247 245 	250 248 246 	253 253 253 	251 253 253 	251 253 253 	
252 254 253 	252 254 253 	252 254 253 	253 254 254 	253 254 254 	248 249 248 	252 253 252 	250 251 250 	251 252 251 	251 252 251 	
252 253 253 	252 252 253 	253 252 253 	252 251 252 	253 252 253 	253 254 254 	249 251 251 	252 253 253 	250 251 251 	252 252 252 	
255 255 255 	254 254 254 	249 247 244 	233 226 217 	229 221 209 	236 229 221 	238 232 224 	235 229 220 	238 232 224 	241 237 232 	
245 241 237 	238 232 226 	233 225 218 	235 228 221 	243 239 234 	252 251 249 	251 253 253 	248 252 251 	250 253 252 	250 253 252 	
242 246 244 	245 249 247 	250 252 251 	249 251 249 	251 252 251 	253 253 252 	253 253 252 	253 253 253 	254 254 254 	254 253 254 	
253 253 253 	253 253 253 	254 253 254 	254 254 254 	252 251 250 	254 254 253 	254 254 253 	254 254 253 	244 244 243 	248 248 247 	
240 235 229 	196 181 164 	181 161 137 	183 161 137 	174 151 126 	174 152 124 	172 151 123 	181 162 136 	187 167 143 	186 164 140 	
186 166 144 	203 186 168 	227 218 206 	247 244 241 	253 254 253 	251 253 252 	250 252 251 	248 251 250 	246 249 247 	248 251 250 	
249 251 250 	248 249 247 	239 238 237 	252 251 250 	251 250 249 	251 250 250 	252 251 251 	252 251 251 	254 253 253 	254 254 254 	
254 254 253 	244 240 240 	239 234 234 	251 249 248 	246 245 244 	253 253 252 	237 237 236 	254 254 254 	240 235 228 	192 174 152 	
172 146 116 	171 143 110 	164 134 99 	166 137 101 	163 136 99 	160 133 97 	166 138 104 	163 135 101 	164 138 108 	188 167 144 	
221 210 195 	246 243 239 	254 254 254 	254 254 254 	247 248 247 	248 250 248 	250 252 251 	248 250 248 	240 241 239 	251 250 248 	
249 247 246 	247 245 245 	246 243 244 	245 242 243 	246 243 244 	247 244 244 	248 246 246 	250 248 247 	249 247 246 	245 241 241 	
244 241 240 	247 244 244 	245 242 241 	252 251 250 	245 245 244 	253 252 253 	238 232 226 	182 163 141 	163 136 104 	167 138 103 	
164 134 99 	166 137 101 	165 136 100 	169 140 105 	171 143 108 	168 139 104 	169 141 110 	192 171 148 	224 214 200 	250 248 246 	
252 252 253 	252 251 252 	251 250 251 	253 253 253 	253 252 252 	239 237 236 	241 237 236 	247 244 244 	227 218 219 	240 235 237 	
238 232 234 	236 230 232 	236 229 231 	237 231 232 	239 234 234 	241 236 235 	240 235 234 	233 225 226 	237 231 232 	227 218 219 	
246 243 242 	251 249 248 	252 251 250 	254 254 254 	239 234 227 	183 163 138 	164 136 102 	167 137 101 	164 134 99 	165 135 100 	
163 132 98 	163 133 100 	167 138 104 	163 133 98 	165 136 105 	190 168 145 	223 212 198 	249 247 244 	251 251 252 	253 252 253 	
253 252 253 	251 250 250 	252 251 251 	247 244 243 	248 246 245 	233 225 226 	107 89 93 	95 70 76 	98 68 75 	98 65 73 	
98 65 72 	96 65 71 	94 65 70 	92 66 69 	92 67 70 	95 67 72 	105 80 85 	107 88 91 	236 230 230 	248 245 245 	
252 251 250 	250 249 247 	234 227 218 	175 154 126 	166 137 101 	164 133 99 	164 134 99 	165 135 101 	169 140 108 	171 143 112 	
169 140 109 	165 135 101 	172 144 112 	178 157 132 	222 211 196 	243 239 234 	252 254 253 	252 254 253 	250 252 252 	252 254 253 	
251 252 251 	252 251 250 	248 245 244 	242 238 238 	90 68 72 	97 67 74 	99 62 70 	100 59 68 	100 56 66 	99 56 65 	
97 55 63 	95 56 62 	95 58 64 	99 64 71 	99 68 76 	98 75 80 	241 236 237 	248 245 245 	249 247 246 	250 250 248 	
233 226 216 	174 154 125 	166 138 101 	164 134 99 	165 135 100 	165 135 102 	169 141 109 	172 145 114 	169 140 109 	166 136 102 	
172 144 113 	179 158 133 	223 212 198 	243 239 234 	252 254 253 	251 253 253 	251 253 253 	252 254 253 	248 248 247 	249 247 246 	
243 239 239 	240 235 236 	104 80 85 	101 68 75 	103 63 72 	104 58 69 	104 56 67 	103 55 65 	102 55 64 	100 55 62 	
101 58 66 	108 69 78 	102 69 78 	88 62 68 	240 235 237 	244 240 240 	250 248 248 	253 254 254 	239 234 227 	176 156 128 	
165 137 100 	164 134 99 	165 135 100 	165 135 100 	167 138 104 	169 140 107 	166 136 103 	165 135 100 	174 147 116 	182 162 140 	
228 219 207 	248 246 243 	252 254 253 	253 253 253 	254 253 254 	254 253 254 	247 245 246 	250 248 249 	245 242 243 	233 226 228 	
85 59 65 	97 64 72 	99 59 68 	100 56 66 	100 54 64 	99 52 62 	98 52 61 	97 52 60 	97 55 63 	98 62 71 	
98 68 76 	89 65 71 	241 236 238 	247 244 244 	250 248 248 	253 254 254 	240 235 228 	176 157 129 	165 137 100 	164 134 99 	
165 135 100 	164 134 99 	166 137 102 	166 137 102 	163 134 99 	165 135 100 	174 147 116 	183 164 143 	230 222 211 	248 246 243 	
252 254 253 	253 254 254 	254 254 254 	253 253 253 	251 249 250 	250 249 249 	247 244 245 	236 230 231 	122 102 106 	97 72 77 	
98 69 75 	98 66 72 	98 64 71 	98 63 70 	98 63 69 	97 63 68 	97 65 71 	97 69 76 	108 84 91 	110 91 96 	
235 228 230 	244 240 241 	250 248 248 	254 254 254 	237 231 223 	175 154 126 	166 138 101 	164 134 99 	165 135 100 	163 134 99 	
165 136 100 	166 137 101 	164 135 99 	165 135 100 	174 147 116 	183 164 143 	228 219 207 	245 241 237 	250 252 251 	249 253 252 	
248 252 251 	249 253 252 	250 252 251 	247 249 247 	242 241 239 	250 248 247 	226 220 219 	245 242 240 	243 239 237 	242 237 236 	
241 237 235 	241 236 234 	241 236 234 	241 236 234 	241 236 235 	240 235 236 	240 235 237 	231 223 225 	246 243 244 	249 247 246 	
245 242 242 	254 254 254 	236 230 222 	175 154 126 	166 138 101 	163 133 98 	165 135 100 	163 134 99 	164 136 100 	165 137 100 	
164 135 99 	165 135 100 	174 147 117 	185 165 145 	229 220 208 	243 239 234 	249 250 248 	248 252 251 	248 252 251 	248 252 251 	
249 252 251 	249 251 250 	242 243 241 	250 250 248 	250 249 247 	250 249 247 	250 249 247 	250 249 247 	250 249 247 	251 250 249 	
251 250 249 	252 251 249 	252 251 249 	250 248 248 	249 247 247 	250 248 248 	245 242 242 	250 248 248 	244 240 240 	253 253 253 	
238 232 225 	177 156 129 	167 139 103 	164 134 100 	167 137 103 	164 135 100 	164 136 100 	165 137 100 	164 135 99 	165 136 101 	
176 150 121 	187 168 149 	231 223 212 	244 240 235 	251 250 249 	251 252 251 	253 253 253 	246 246 245 	253 252 252 	252 251 251 	
252 251 251 	250 248 248 	247 244 244 	252 251 251 	253 253 253 	253 253 253 	253 253 253 	253 253 253 	253 252 253 	252 251 252 	
253 253 253 	244 247 245 	248 251 249 	251 252 251 	251 251 249 	251 250 249 	249 247 246 	253 252 252 	239 233 226 	184 166 144 	
176 152 123 	171 146 117 	174 149 119 	169 144 113 	170 145 112 	170 145 112 	167 142 109 	173 147 117 	182 160 135 	190 174 158 	
234 227 218 	245 241 237 	251 249 247 	248 247 246 	253 252 252 	252 251 251 	250 248 248 	250 248 249 	249 247 248 	251 249 250 	
253 252 253 	254 254 254 	254 254 254 	254 254 254 	254 254 254 	254 253 254 	253 252 253 	253 252 253 	254 254 254 	248 252 251 	
247 251 250 	242 246 243 	250 251 250 	252 251 250 	252 251 250 	245 242 238 	233 227 219 	209 198 184 	192 179 160 	186 171 150 	
185 168 146 	181 163 139 	177 159 134 	177 159 134 	179 162 138 	184 168 146 	193 179 161 	210 200 187 	227 220 212 	243 239 234 	
249 247 244 	252 251 250 	254 254 253 	254 254 254 	253 253 253 	254 254 254 	254 254 254 	254 254 254 	254 254 254 	254 254 254 	
255 255 255 	255 255 255 	254 254 254 	254 254 254 	254 254 254 	254 254 254 	254 254 254 	253 254 254 	252 254 253 	253 253 253 	
253 253 253 	254 254 253 	254 254 253 	245 242 238 	243 239 234 	238 233 225 	234 227 218 	230 222 211 	226 217 204 	223 213 199 	
222 211 196 	222 211 197 	225 215 201 	229 220 208 	233 226 216 	239 234 227 	244 240 235 	248 245 242 	251 250 248 	253 253 252 	
255 255 255 	255 255 255 	255 255 255 	255 255 255 	255 255 255 	255 255 255 	255 255 255 	255 255 255 	255 255 255 	255 255 255 	
255 255 255 	255 255 255 	255 255 255 	255 255 255 	255 255 255 	255 255 255 	255 255 255 	255 255 255 	255 255 255 	255 255 255 	
255 255 255 	253 252 251 	250 249 247 	247 245 242 	246 243 239 	244 240 235 	242 237 231 	240 235 228 	239 234 227 	239 234 227 	
241 236 230 	243 239 234 	247 244 241 	251 249 247 	252 251 251 	253 253 253 	252 252 253 	255 255 255 	255 255 255 	255 255 255 	
255 255 255 	255 255 255 	255 255 255 	255 255 255 	255 255 255 	255 255 255 	255 255 255 	255 255 255 	255 255 255 	255 255 255 	
255 255 255 	255 255 255 	255 255 255 	255 255 255 	255 255 255 	255 255 255 	255 255 255 	255 255 255 	255 255 255 	254 254 254 	
254 254 254 	254 253 253 	252 251 250 	251 249 248 	249 247 245 	246 243 240 	244 240 237 	244 240 237 	246 243 241 	248 246 245 	
253 252 252 	254 253 254 	254 253 254 	253 252 253 	253 253 253 	254 254 254 	255 255 255 	255 255 255 	255 255 255 	255 255 255 	
255 255 255 	255 255 255 	255 255 255 	255 255 255 	255 255 255 	255 255 255 	255 255 255 	255 255 255 	255 255 255 	255 255 255 	
255 255 255 	255 255 255 	255 255 255 	255 255 255 	255 255 255 	255 255 255 	255 255 255 	