P3
4 4
255
0 0 0 	
33 11 14 	0 0 0 	170 141 188 	0 0 0 	143 191 169 	0 0 0 	0 0 0 	0 0 0 	0 0 0 	63 84 107 	
0 0 0 	170 141 188 	0 0 0 	0 0 0 	255 255 255 	