P3
4 4
255
25 63 43 	
25 63 43 	63 0 63 	63 0 63 	12 31 21 	12 31 21 	31 3 75 	31 3 75 	69 15 74 	69 15 74 	79 65 101 	
79 65 101 	69 15 74 	69 15 74 	79 65 101 	79 65 101 	